# Castilla - Techo Propio - modelo 3D aproximado
# Unidades: metros | lote 5.00 x 12.50 | casa 5.00 x 5.00
mtllib castilla_techo_propio_3d.mtl

v 0.0000 0.0000 -0.0600
v 5.0000 0.0000 -0.0600
v 5.0000 12.5000 -0.0600
v 0.0000 12.5000 -0.0600
v 0.0000 0.0000 0.0000
v 5.0000 0.0000 0.0000
v 5.0000 12.5000 0.0000
v 0.0000 12.5000 0.0000
v 0.0000 7.5000 0.0000
v 5.0000 7.5000 0.0000
v 5.0000 12.5000 0.0000
v 0.0000 12.5000 0.0000
v 0.0000 7.5000 0.0600
v 5.0000 7.5000 0.0600
v 5.0000 12.5000 0.0600
v 0.0000 12.5000 0.0600
v 0.0600 0.0600 0.0000
v 4.9400 0.0600 0.0000
v 4.9400 7.4400 0.0000
v 0.0600 7.4400 0.0000
v 0.0600 0.0600 0.0250
v 4.9400 0.0600 0.0250
v 4.9400 7.4400 0.0250
v 0.0600 7.4400 0.0250
v 0.0000 7.5000 0.0600
v 0.6500 7.5000 0.0600
v 0.6500 7.6200 0.0600
v 0.0000 7.6200 0.0600
v 0.0000 7.5000 2.4000
v 0.6500 7.5000 2.4000
v 0.6500 7.6200 2.4000
v 0.0000 7.6200 2.4000
v 1.5500 7.5000 0.0600
v 5.0000 7.5000 0.0600
v 5.0000 7.6200 0.0600
v 1.5500 7.6200 0.0600
v 1.5500 7.5000 2.4000
v 5.0000 7.5000 2.4000
v 5.0000 7.6200 2.4000
v 1.5500 7.6200 2.4000
v 0.0000 12.3800 0.0600
v 5.0000 12.3800 0.0600
v 5.0000 12.5000 0.0600
v 0.0000 12.5000 0.0600
v 0.0000 12.3800 2.4000
v 5.0000 12.3800 2.4000
v 5.0000 12.5000 2.4000
v 0.0000 12.5000 2.4000
v 0.0000 7.5000 0.0600
v 0.1200 7.5000 0.0600
v 0.1200 12.5000 0.0600
v 0.0000 12.5000 0.0600
v 0.0000 7.5000 2.4000
v 0.1200 7.5000 2.4000
v 0.1200 12.5000 2.4000
v 0.0000 12.5000 2.4000
v 4.8800 7.5000 0.0600
v 5.0000 7.5000 0.0600
v 5.0000 12.5000 0.0600
v 4.8800 12.5000 0.0600
v 4.8800 7.5000 2.4000
v 5.0000 7.5000 2.4000
v 5.0000 12.5000 2.4000
v 4.8800 12.5000 2.4000
v 2.4900 7.6200 0.0600
v 2.6100 7.6200 0.0600
v 2.6100 9.0500 0.0600
v 2.4900 9.0500 0.0600
v 2.4900 7.6200 2.4000
v 2.6100 7.6200 2.4000
v 2.6100 9.0500 2.4000
v 2.4900 9.0500 2.4000
v 2.4900 9.8500 0.0600
v 2.6100 9.8500 0.0600
v 2.6100 11.0500 0.0600
v 2.4900 11.0500 0.0600
v 2.4900 9.8500 2.4000
v 2.6100 9.8500 2.4000
v 2.6100 11.0500 2.4000
v 2.4900 11.0500 2.4000
v 2.4900 11.8500 0.0600
v 2.6100 11.8500 0.0600
v 2.6100 12.3800 0.0600
v 2.4900 12.3800 0.0600
v 2.4900 11.8500 2.4000
v 2.6100 11.8500 2.4000
v 2.6100 12.3800 2.4000
v 2.4900 12.3800 2.4000
v 0.1200 9.2900 0.0600
v 1.0500 9.2900 0.0600
v 1.0500 9.4100 0.0600
v 0.1200 9.4100 0.0600
v 0.1200 9.2900 2.4000
v 1.0500 9.2900 2.4000
v 1.0500 9.4100 2.4000
v 0.1200 9.4100 2.4000
v 1.8000 9.2900 0.0600
v 2.5500 9.2900 0.0600
v 2.5500 9.4100 0.0600
v 1.8000 9.4100 0.0600
v 1.8000 9.2900 2.4000
v 2.5500 9.2900 2.4000
v 2.5500 9.4100 2.4000
v 1.8000 9.4100 2.4000
v 0.1200 10.6900 0.0600
v 2.5500 10.6900 0.0600
v 2.5500 10.8100 0.0600
v 0.1200 10.8100 0.0600
v 0.1200 10.6900 2.4000
v 2.5500 10.6900 2.4000
v 2.5500 10.8100 2.4000
v 0.1200 10.8100 2.4000
v 1.2200 9.3500 0.0600
v 1.3400 9.3500 0.0600
v 1.3400 10.7500 0.0600
v 1.2200 10.7500 0.0600
v 1.2200 9.3500 2.4000
v 1.3400 9.3500 2.4000
v 1.3400 10.7500 2.4000
v 1.2200 10.7500 2.4000
v 2.5500 10.0900 0.0600
v 3.4500 10.0900 0.0600
v 3.4500 10.2100 0.0600
v 2.5500 10.2100 0.0600
v 2.5500 10.0900 2.4000
v 3.4500 10.0900 2.4000
v 3.4500 10.2100 2.4000
v 2.5500 10.2100 2.4000
v 4.2000 10.0900 0.0600
v 4.8800 10.0900 0.0600
v 4.8800 10.2100 0.0600
v 4.2000 10.2100 0.0600
v 4.2000 10.0900 2.4000
v 4.8800 10.0900 2.4000
v 4.8800 10.2100 2.4000
v 4.2000 10.2100 2.4000
v 1.4900 10.7500 0.0600
v 1.6100 10.7500 0.0600
v 1.6100 12.3800 0.0600
v 1.4900 12.3800 0.0600
v 1.4900 10.7500 2.4000
v 1.6100 10.7500 2.4000
v 1.6100 12.3800 2.4000
v 1.4900 12.3800 2.4000
v 0.6800 7.5300 0.0600
v 1.5200 7.5300 0.0600
v 1.5200 7.5700 0.0600
v 0.6800 7.5700 0.0600
v 0.6800 7.5300 2.1000
v 1.5200 7.5300 2.1000
v 1.5200 7.5700 2.1000
v 0.6800 7.5700 2.1000
v 3.4700 10.1200 0.0600
v 4.1800 10.1200 0.0600
v 4.1800 10.1800 0.0600
v 3.4700 10.1800 0.0600
v 3.4700 10.1200 2.1000
v 4.1800 10.1200 2.1000
v 4.1800 10.1800 2.1000
v 3.4700 10.1800 2.1000
v 1.0700 9.3200 0.0600
v 1.7800 9.3200 0.0600
v 1.7800 9.3800 0.0600
v 1.0700 9.3800 0.0600
v 1.0700 9.3200 2.1000
v 1.7800 9.3200 2.1000
v 1.7800 9.3800 2.1000
v 1.0700 9.3800 2.1000

o terreno
usemtl ground
f 1 2 3 4
f 5 8 7 6
f 1 5 6 2
f 2 6 7 3
f 3 7 8 4
f 4 8 5 1

o piso_casa
usemtl floor
f 9 10 11 12
f 13 16 15 14
f 9 13 14 10
f 10 14 15 11
f 11 15 16 12
f 12 16 13 9

o jardin
usemtl grass
f 17 18 19 20
f 21 24 23 22
f 17 21 22 18
f 18 22 23 19
f 19 23 24 20
f 20 24 21 17

o muro_frente_izq
usemtl wall
f 25 26 27 28
f 29 32 31 30
f 25 29 30 26
f 26 30 31 27
f 27 31 32 28
f 28 32 29 25

o muro_frente_der
f 33 34 35 36
f 37 40 39 38
f 33 37 38 34
f 34 38 39 35
f 35 39 40 36
f 36 40 37 33

o muro_fondo
f 41 42 43 44
f 45 48 47 46
f 41 45 46 42
f 42 46 47 43
f 43 47 48 44
f 44 48 45 41

o muro_lateral_izq
f 49 50 51 52
f 53 56 55 54
f 49 53 54 50
f 50 54 55 51
f 51 55 56 52
f 52 56 53 49

o muro_lateral_der
f 57 58 59 60
f 61 64 63 62
f 57 61 62 58
f 58 62 63 59
f 59 63 64 60
f 60 64 61 57

o muro_vertical_A
f 65 66 67 68
f 69 72 71 70
f 65 69 70 66
f 66 70 71 67
f 67 71 72 68
f 68 72 69 65

o muro_vertical_B
f 73 74 75 76
f 77 80 79 78
f 73 77 78 74
f 74 78 79 75
f 75 79 80 76
f 76 80 77 73

o muro_vertical_C
f 81 82 83 84
f 85 88 87 86
f 81 85 86 82
f 82 86 87 83
f 83 87 88 84
f 84 88 85 81

o bano_horizontal_1
f 89 90 91 92
f 93 96 95 94
f 89 93 94 90
f 90 94 95 91
f 91 95 96 92
f 92 96 93 89

o bano_horizontal_2
f 97 98 99 100
f 101 104 103 102
f 97 101 102 98
f 98 102 103 99
f 99 103 104 100
f 100 104 101 97

o bano_fondo
f 105 106 107 108
f 109 112 111 110
f 105 109 110 106
f 106 110 111 107
f 107 111 112 108
f 108 112 109 105

o bano_division
f 113 114 115 116
f 117 120 119 118
f 113 117 118 114
f 114 118 119 115
f 115 119 120 116
f 116 120 117 113

o division_dormitorios_A
f 121 122 123 124
f 125 128 127 126
f 121 125 126 122
f 122 126 127 123
f 123 127 128 124
f 124 128 125 121

o division_dormitorios_B
f 129 130 131 132
f 133 136 135 134
f 129 133 134 130
f 130 134 135 131
f 131 135 136 132
f 132 136 133 129

o division_cocina
f 137 138 139 140
f 141 144 143 142
f 137 141 142 138
f 138 142 143 139
f 139 143 144 140
f 140 144 141 137

o puerta_principal
usemtl door
f 145 146 147 148
f 149 152 151 150
f 145 149 150 146
f 146 150 151 147
f 147 151 152 148
f 148 152 149 145

o puerta_dorm_1
f 153 154 155 156
f 157 160 159 158
f 153 157 158 154
f 154 158 159 155
f 155 159 160 156
f 156 160 157 153

o puerta_bano
f 161 162 163 164
f 165 168 167 166
f 161 165 166 162
f 162 166 167 163
f 163 167 168 164
f 164 168 165 161
